STARTFONT 2.1
COMMENT
COMMENT Converted from OpenType font "DroidSansMono_ALPHA.ttf" by "otf2bdf 3.0".
COMMENT
FONT -FreeType-Droid Sans Mono-Medium-R-Normal--25-180-100-100-P-118-ISO10646-1
SIZE 18 100 100
FONTBOUNDINGBOX 15 23 0 -5
STARTPROPERTIES 19
FOUNDRY "FreeType"
FAMILY_NAME "Droid Sans Mono"
WEIGHT_NAME "Medium"
SLANT "R"
SETWIDTH_NAME "Normal"
ADD_STYLE_NAME ""
PIXEL_SIZE 25
POINT_SIZE 180
RESOLUTION_X 100
RESOLUTION_Y 100
SPACING "P"
AVERAGE_WIDTH 118
CHARSET_REGISTRY "ISO10646"
CHARSET_ENCODING "1"
FONT_ASCENT 23
FONT_DESCENT 5
COPYRIGHT "Digitized data copyright © 2007, Google Corporation."
_OTF_FONTFILE "DroidSansMono_ALPHA.ttf"
_OTF_PSNAME "DroidSansMono"
ENDPROPERTIES
CHARS 27
STARTCHAR 0020
ENCODING 32
SWIDTH 600 0
DWIDTH 15 0
BBX 0 0 0 0
BITMAP
ENDCHAR
STARTCHAR 0041
ENCODING 65
SWIDTH 600 0
DWIDTH 15 0
BBX 13 18 1 0
BITMAP
0700
0700
0F80
0D80
0D80
1D80
18C0
18C0
38C0
3060
3FE0
3FE0
6030
6030
6030
C018
C018
C018
ENDCHAR
STARTCHAR 0042
ENCODING 66
SWIDTH 600 0
DWIDTH 15 0
BBX 12 18 2 0
BITMAP
FF80
FFC0
C0E0
C060
C060
C060
C060
C0C0
FF80
FFC0
C0E0
C070
C070
C070
C070
C0E0
FFE0
FF80
ENDCHAR
STARTCHAR 0043
ENCODING 67
SWIDTH 600 0
DWIDTH 15 0
BBX 12 18 2 0
BITMAP
07E0
1FF0
3830
7000
E000
E000
C000
C000
C000
C000
C000
C000
C000
E000
7000
7810
3FF0
0FE0
ENDCHAR
STARTCHAR 0044
ENCODING 68
SWIDTH 600 0
DWIDTH 15 0
BBX 12 18 2 0
BITMAP
FE00
FF80
C3C0
C0E0
C060
C070
C070
C030
C030
C030
C070
C070
C070
C060
C0E0
C3C0
FF80
FE00
ENDCHAR
STARTCHAR 0045
ENCODING 69
SWIDTH 600 0
DWIDTH 15 0
BBX 10 18 3 0
BITMAP
FFC0
FFC0
C000
C000
C000
C000
C000
C000
FF80
FF80
C000
C000
C000
C000
C000
C000
FFC0
FFC0
ENDCHAR
STARTCHAR 0046
ENCODING 70
SWIDTH 600 0
DWIDTH 15 0
BBX 10 18 3 0
BITMAP
FFC0
FFC0
C000
C000
C000
C000
C000
C000
FFC0
FFC0
C000
C000
C000
C000
C000
C000
C000
C000
ENDCHAR
STARTCHAR 0047
ENCODING 71
SWIDTH 600 0
DWIDTH 15 0
BBX 12 18 1 0
BITMAP
07E0
1FF0
3C20
3000
7000
6000
6000
E000
E1F0
E1F0
E030
6030
6030
7030
3030
3830
1FF0
07E0
ENDCHAR
STARTCHAR 0048
ENCODING 72
SWIDTH 600 0
DWIDTH 15 0
BBX 11 18 2 0
BITMAP
C060
C060
C060
C060
C060
C060
C060
C060
FFE0
FFE0
C060
C060
C060
C060
C060
C060
C060
C060
ENDCHAR
STARTCHAR 0049
ENCODING 73
SWIDTH 600 0
DWIDTH 15 0
BBX 9 18 3 0
BITMAP
FF80
FF80
1C00
1C00
1C00
1C00
1C00
1C00
1C00
1C00
1C00
1C00
1C00
1C00
1C00
1C00
FF80
FF80
ENDCHAR
STARTCHAR 004A
ENCODING 74
SWIDTH 600 0
DWIDTH 15 0
BBX 10 18 2 0
BITMAP
00C0
00C0
00C0
00C0
00C0
00C0
00C0
00C0
00C0
00C0
00C0
00C0
00C0
00C0
01C0
0380
FF00
FC00
ENDCHAR
STARTCHAR 004B
ENCODING 75
SWIDTH 600 0
DWIDTH 15 0
BBX 11 18 3 0
BITMAP
C0E0
C0C0
C180
C380
C700
CE00
CC00
D800
F800
EC00
CE00
C600
C300
C380
C180
C1C0
C0E0
C060
ENDCHAR
STARTCHAR 004C
ENCODING 76
SWIDTH 600 0
DWIDTH 15 0
BBX 10 18 3 0
BITMAP
C000
C000
C000
C000
C000
C000
C000
C000
C000
C000
C000
C000
C000
C000
C000
C000
FFC0
FFC0
ENDCHAR
STARTCHAR 004D
ENCODING 77
SWIDTH 600 0
DWIDTH 15 0
BBX 13 18 1 0
BITMAP
F078
F078
F078
F078
D058
D8D8
D8D8
D8D8
D898
C898
CD98
CD98
CD98
C518
C518
C718
C718
C718
ENDCHAR
STARTCHAR 004E
ENCODING 78
SWIDTH 600 0
DWIDTH 15 0
BBX 11 18 2 0
BITMAP
C060
E060
E060
F060
F060
D860
D860
CC60
CC60
C660
C660
C360
C360
C1E0
C1E0
C0E0
C0E0
C0E0
ENDCHAR
STARTCHAR 004F
ENCODING 79
SWIDTH 600 0
DWIDTH 15 0
BBX 13 18 1 0
BITMAP
0F80
3FE0
78E0
7070
6030
E038
E038
E018
C018
C018
C018
E038
E038
6030
7070
78E0
3FE0
0F80
ENDCHAR
STARTCHAR 0050
ENCODING 80
SWIDTH 600 0
DWIDTH 15 0
BBX 11 18 2 0
BITMAP
FF00
FFC0
C1E0
C060
C060
C060
C060
C0E0
C1E0
FFC0
FF00
C000
C000
C000
C000
C000
C000
C000
ENDCHAR
STARTCHAR 0051
ENCODING 81
SWIDTH 600 0
DWIDTH 15 0
BBX 13 23 1 -5
BITMAP
0F80
3FE0
78E0
7070
6030
E038
E038
E018
C018
C018
C018
E038
E038
6030
7070
78E0
3FE0
0FC0
00C0
00E0
0070
0038
0010
ENDCHAR
STARTCHAR 0052
ENCODING 82
SWIDTH 600 0
DWIDTH 15 0
BBX 12 18 2 0
BITMAP
FF00
FFC0
E1C0
E0E0
E060
E060
E060
E0E0
E1C0
FF80
FF00
E300
E380
E180
E1C0
E0E0
E060
E070
ENDCHAR
STARTCHAR 0053
ENCODING 83
SWIDTH 600 0
DWIDTH 15 0
BBX 11 18 2 0
BITMAP
1FC0
7FE0
E040
C000
C000
C000
E000
7800
3F00
0F80
01E0
00E0
0060
0060
0060
80E0
FFC0
7F00
ENDCHAR
STARTCHAR 0054
ENCODING 84
SWIDTH 600 0
DWIDTH 15 0
BBX 13 18 1 0
BITMAP
FFF8
FFF8
0700
0700
0700
0700
0700
0700
0700
0700
0700
0700
0700
0700
0700
0700
0700
0700
ENDCHAR
STARTCHAR 0055
ENCODING 85
SWIDTH 600 0
DWIDTH 15 0
BBX 11 18 2 0
BITMAP
C060
C060
C060
C060
C060
C060
C060
C060
C060
C060
C060
C060
C060
C060
E0E0
F1E0
7FC0
1F00
ENDCHAR
STARTCHAR 0056
ENCODING 86
SWIDTH 600 0
DWIDTH 15 0
BBX 13 18 1 0
BITMAP
C018
C018
E038
6030
6030
7070
3060
3060
30E0
18C0
18C0
18C0
0D80
0D80
0D80
0700
0700
0700
ENDCHAR
STARTCHAR 0057
ENCODING 87
SWIDTH 600 0
DWIDTH 15 0
BBX 15 18 0 0
BITMAP
C006
C006
C006
6006
600C
600C
638C
638C
628C
66CC
66CC
36CC
3448
3C78
3C78
3C38
3838
3838
ENDCHAR
STARTCHAR 0058
ENCODING 88
SWIDTH 600 0
DWIDTH 15 0
BBX 13 18 1 0
BITMAP
E038
6030
3060
38E0
18C0
1DC0
0D80
0700
0700
0700
0D80
1DC0
18C0
38E0
3060
6070
6030
C038
ENDCHAR
STARTCHAR 0059
ENCODING 89
SWIDTH 600 0
DWIDTH 15 0
BBX 13 18 1 0
BITMAP
C018
E038
6030
7070
3060
38E0
18C0
1DC0
0D80
0700
0700
0700
0700
0700
0700
0700
0700
0700
ENDCHAR
STARTCHAR 005A
ENCODING 90
SWIDTH 600 0
DWIDTH 15 0
BBX 13 18 1 0
BITMAP
FFF0
FFF0
0030
0060
00E0
00C0
0180
0380
0700
0600
0E00
1C00
1800
3800
7000
6000
FFF8
FFF8
ENDCHAR
ENDFONT
